<svg width="24" height="24" viewBox="0 0 24 24" fill="none" xmlns="http://www.w3.org/2000/svg">
<path d="M2 18H17.5119C18.3952 18 19.1738 17.4207 19.4276 16.5747L21.6138 9.28735C21.8063 8.64574 21.3258 8 20.656 8H20M2 18C1.46957 18 0.960859 17.7893 0.585786 17.4142C0.210714 17.0391 0 16.5304 0 16V2C0 1.46957 0.210714 0.960859 0.585786 0.585786C0.960859 0.210714 1.46957 0 2 0H7L9 3H18C18.5304 3 19.0391 3.21071 19.4142 3.58579C19.7893 3.96086 20 4.46957 20 5V8M2 18L4.7862 8.71265C4.9131 8.28967 5.30242 8 5.74403 8H20" transform="translate(1 3)" stroke="black" stroke-width="2" stroke-linecap="round" stroke-linejoin="round"/>
</svg>
